<?xml version="1.0" standalone="no"?><!DOCTYPE svg PUBLIC "-//W3C//DTD SVG 1.1//EN" "http://www.w3.org/Graphics/SVG/1.1/DTD/svg11.dtd"><svg t="1624104152217" class="icon" viewBox="0 0 1024 1024" version="1.1" xmlns="http://www.w3.org/2000/svg" p-id="2677" xmlns:xlink="http://www.w3.org/1999/xlink" width="64" height="64"><defs><style type="text/css"></style></defs><path d="M960.9728 99.0208c3.9424-49.6128-18.2784-39.2192-33.9456-31.3856 0 0-0.0512 0-0.0512 0.0512-175.9232 72.9088-310.784 201.3696-320.9216 211.1488-0.4096 0.3584-0.9216 0.4608-1.4336 0.256-79.4112-30.5152-175.616-2.816-185.1904 0.1024-0.4608 0.1536-0.9728 0.0512-1.3824-0.3072-9.8816-9.5744-144.8448-138.24-320.9728-211.2 0 0-0.0512 0-0.0512-0.0512-15.6672-7.8336-37.888-18.2272-33.9456 31.3856 3.9424 49.664 18.6368 129.4336 25.4976 146.0736 6.8608 16.6912 15.6672 42.1376 10.8032 67.6352-4.864 25.3952 2.8672 61.4912 17.4592 91.8016 0.1024 0.2048 0.1536 0.4608 0.1536 0.7168-3.84 37.9904-12.2368 92.3648-50.6368 112.5376-1.1776 0.6144-1.024 2.3552 0.3072 2.6112 18.8928 3.7888 40.8576 6.5536 52.1728 2.2528 1.28-0.4608 2.4064 0.8192 1.7408 1.9968-12.1856 20.1728-13.7216 40.96-29.184 53.4016-1.1264 0.9216-0.3584 2.7136 1.0752 2.4576 20.2752-3.328 35.4304-11.3664 43.776-16.7936 1.3312-0.8704 2.8672 0.7168 1.8944 1.9968-8.3968 11.264-24.832 32.8704-35.9424 43.9296-0.9216 0.9216-0.2048 2.4576 1.0752 2.4064 13.5168-0.8192 38.2976-10.24 48.0256-14.08 1.28-0.512 2.4064 0.8704 1.6896 2.048-7.4752 11.776-31.232 48.6912-43.6224 62.5152-0.9728 1.0752 0.0512 2.7136 1.4336 2.304 17.2032-5.1712 41.0624-15.5136 53.248-24.3712 1.2288-0.8704 2.816 0.4608 2.0992 1.792-15.9232 30.0032-27.4432 49.7664-50.944 63.744-1.2288 0.7168-0.6144 2.6624 0.8192 2.6112 35.2256-1.536 56.064-12.1856 61.44-15.3088 0.768-0.4096 1.6896-0.1024 1.9968 0.7168 0.6144 1.6384 1.792 4.5056 3.6864 8.2432-10.2912 4.7104-21.4016 9.3696-33.6384 13.2096-2.304 0.7168-1.9968 4.096 0.4608 4.352 13.312 1.3312 24.576 2.1504 33.4848 1.6384 2.3552-0.1536 3.2768 2.9696 1.28 4.1472-23.5008 13.7216-41.1648 27.5968-60.8256 35.1744-2.2016 0.8704-1.6384 4.1472 0.7168 4.3008 32.0512 2.2016 52.5312 1.6896 65.8944-0.6144 2.1504-0.3584 3.4304 2.2016 1.8944 3.7888-17.6128 17.6128-15.616 45.1584-19.712 64-0.3584 1.5872 1.024 3.0208 2.6112 2.7136 28.2112-5.4784 37.888-7.8848 49.4592-13.312 2.048-0.9728 4.096 1.3824 2.7648 3.2768-15.9232 22.272-39.2192 50.5856-66.7136 59.136-2.2528 0.7168-1.9968 3.9424 0.3072 4.352 34.304 5.7344 63.488 1.5872 105.2672-11.776 1.5872-0.512 3.1744 0.8192 2.9696 2.4576-4.4032 30.3616-13.3632 56.3712-24.7296 68.7104-1.4848 1.5872-0.1536 4.1472 1.9968 3.7376 66.4064-11.8784 97.536-26.2144 120.7808-41.4208 1.4848-0.9728 3.4816 0.0512 3.4816 1.8432 0.1536 21.4528-4.7104 42.9056-10.5472 53.9648-0.8704 1.6384 0.4096 3.5328 2.2528 3.2768 19.2-2.5088 64.1024-15.872 93.8496-38.7584 1.6896-1.28 4.0448 0.1536 3.584 2.2528-4.1472 19.2-7.936 30.0544-10.1888 35.5328-0.768 1.792 0.9728 3.6352 2.816 2.9184 12.3904-4.5056 45.056-18.3296 69.4784-45.3632 0 0 5.632-5.9392 12.2368 0.8704 25.1392 25.9584 56.9856 40.2432 69.3248 45.1072 1.8432 0.7168 3.6352-1.0752 2.8672-2.9184-2.304-5.5296-6.0416-16.3328-10.1376-35.328-0.4608-2.048 1.8944-3.5328 3.584-2.2528 29.7472 22.8864 74.6496 36.2496 93.8496 38.7584 1.8432 0.256 3.1232-1.6384 2.2528-3.2768-5.8368-11.0592-10.752-32.512-10.5472-53.9648 0-1.792 1.9968-2.816 3.4816-1.8432 23.1936 15.2064 54.3744 29.4912 120.7808 41.4208 2.1504 0.4096 3.4816-2.1504 1.9968-3.7376-11.3664-12.3392-20.3264-38.3488-24.7296-68.7104-0.256-1.6384 1.3824-2.9696 2.9696-2.4576 41.7792 13.3632 70.9632 17.5104 105.2672 11.776 2.304-0.4096 2.56-3.6352 0.3072-4.352-27.4944-8.5504-50.7392-36.864-66.7136-59.136-1.3312-1.8432 0.7168-4.2496 2.7648-3.2768 11.5712 5.4272 21.248 7.8336 49.4592 13.312 1.5872 0.3072 2.9696-1.1264 2.6112-2.7136-4.096-18.8416-2.1504-46.3872-19.712-64-1.536-1.536-0.256-4.1472 1.8944-3.7888 13.4144 2.304 33.8944 2.816 65.8944 0.6144 2.3552-0.1536 2.9184-3.4304 0.7168-4.3008-19.712-7.5776-37.3248-21.504-60.8256-35.1744-2.048-1.1776-1.0752-4.3008 1.28-4.1472 8.9088 0.5632 20.1216-0.256 33.4848-1.6384 2.4064-0.256 2.7648-3.6352 0.4608-4.352-11.3664-3.584-21.7088-7.8336-31.3856-12.1856 8.96 2.1504 19.8144 3.9424 32.6656 4.5056 1.4336 0.0512 2.048-1.8944 0.8192-2.6112-17.3568-10.2912-28.2112-23.808-39.1168-42.2912 0.256-1.0752-0.3584-2.1504-1.4848-2.56-3.3792-5.8368-6.7584-12.0832-10.3936-18.944-0.7168-1.3312 0.8704-2.6624 2.0992-1.792 12.1856 8.8576 36.0448 19.2 53.248 24.3712 1.3824 0.4096 2.4064-1.2288 1.4336-2.304-12.3904-13.824-36.096-50.7392-43.6224-62.5152-0.7168-1.1264 0.4096-2.56 1.6896-2.048 9.6768 3.84 34.5088 13.2608 48.0256 14.08 1.28 0.1024 1.9456-1.4848 1.0752-2.4064-11.1104-11.0592-27.5456-32.6656-35.9424-43.9296-0.9216-1.28 0.5632-2.8672 1.8944-1.9968 8.3456 5.4272 23.5008 13.4656 43.776 16.7936 1.4336 0.256 2.2528-1.536 1.0752-2.4576-15.4624-12.4416-16.9984-33.28-29.184-53.4016-0.7168-1.1776 0.4608-2.4576 1.7408-1.9968 11.3664 4.3008 33.3312 1.536 52.1728-2.2528 1.3312-0.256 1.4848-1.9968 0.3072-2.6112-38.4-20.1728-46.848-74.5472-50.6368-112.5376 0-0.256 0-0.512 0.1536-0.7168 14.592-30.3104 22.3744-66.4064 17.4592-91.8016-4.9152-25.4976 3.9424-50.9952 10.8032-67.6352 6.7072-16.64 21.4016-96.3584 25.344-146.0224z" fill="#1A1819" p-id="2678"></path><path d="M534.2208 926.6688c25.1392 25.9584 56.9856 40.2432 69.3248 45.1072 1.8432 0.7168 3.6352-1.0752 2.8672-2.9184-2.304-5.5296-6.0416-16.3328-10.1376-35.328-0.4608-2.048 1.8944-3.5328 3.584-2.2528 29.7472 22.8864 74.6496 36.2496 93.8496 38.7584 1.8432 0.256 3.1232-1.6384 2.2528-3.2768-5.8368-11.0592-10.752-32.512-10.5472-53.9648 0-1.792 1.9968-2.816 3.4816-1.8432 23.1936 15.2064 54.3744 29.4912 120.7808 41.4208 2.1504 0.4096 3.4816-2.1504 1.9968-3.7376-11.3664-12.3392-20.3264-38.3488-24.7296-68.7104-0.256-1.6384 1.3824-2.9696 2.9696-2.4576 41.7792 13.3632 70.9632 17.5104 105.2672 11.776 2.304-0.4096 2.56-3.6352 0.3072-4.352-27.4944-8.5504-50.7392-36.864-66.7136-59.136-1.3312-1.8432 0.7168-4.2496 2.7648-3.2768 11.5712 5.4272 21.248 7.8336 49.4592 13.312 1.5872 0.3072 2.9696-1.1264 2.6112-2.7136-4.096-18.8416-2.1504-46.3872-19.712-64-1.536-1.536-0.256-4.1472 1.8944-3.7888 13.4144 2.304 33.8944 2.816 65.8944 0.6144 2.3552-0.1536 2.9184-3.4304 0.7168-4.3008-19.712-7.5776-37.3248-21.504-60.8256-35.1744-2.048-1.1776-1.0752-4.3008 1.28-4.1472 8.9088 0.5632 20.1216-0.256 33.4848-1.6384 2.4064-0.256 2.7648-3.6352 0.4608-4.352-27.2384-8.5504-48.7936-20.992-68.608-29.5424a2.2016 2.2016 0 0 1 0.2048-4.1472c10.0864-3.072 21.1968-11.8784 30.464-17.5104 1.8944-1.1264 1.0752-4.0448-1.1264-4.1472-19.5584-0.9216-44.9536-5.7344-64.8192-11.1616-1.9968-0.5632-2.2528-3.3792-0.3072-4.1984 9.6256-4.096 20.8896-14.6432 34.9184-29.6448 1.536-1.6384 0-4.3008-2.2016-3.6864-36.2496 10.0352-80.4352-2.0992-118.016-11.264-2.0992-0.512-2.304-3.328-0.3584-4.1984 6.7072-3.0208 14.1312-9.3184 27.0848-18.5856 1.9968-1.4336 0.6656-4.5568-1.7408-4.0448-27.5968 6.2976-65.7408 10.496-92.1088 1.5872-30.4128-10.2912-70.2464 0-70.2464 0-0.8192 0.2048-0.0512-0.8704-0.0512-0.8704s23.7056-23.04 18.3296-77.312c-2.304-13.7216-2.048-43.4688 16.8448-61.6448 1.7408-1.6384 0.2048-4.4544-2.0992-3.84-10.2912 2.9184-19.5072 5.6832-24.32 7.6288-1.536 0.6144-3.1232-0.5632-3.072-2.2016 0.8192-18.176 5.376-45.9776 12.8512-60.7744 1.024-1.9968-1.1776-4.096-3.1232-3.0208-11.3664 6.5536-19.4048 13.5168-23.9104 17.9712-1.4336 1.4336-3.8912 0.3072-3.7888-1.6896 0.8192-16.64-0.0512-44.8512 11.6736-67.7888 1.024-1.9968-1.1776-4.1472-3.1232-2.9696-9.4208 5.7856-15.4112 10.9056-18.688 14.1312-1.2288 1.2288-3.328 0.6656-3.7376-1.024-3.9424-16.384-18.0224-35.3792-24.576-43.5712-1.1776-1.4848-3.5328-0.9216-3.8912 0.8704-2.56 12.288-13.9264 29.7472-17.7152 42.9056-0.4608 1.6384-2.5088 2.1504-3.6864 0.9216-3.2256-3.2256-9.2672-8.448-18.8416-14.2848-1.9456-1.1776-4.1472 0.9216-3.1232 2.9696 11.7248 22.9376 10.8544 51.1488 11.6736 67.7888 0.1024 2.048-2.3552 3.1232-3.7888 1.6896-4.5056-4.4544-12.4928-11.4176-23.9104-17.9712-1.9456-1.1264-4.1472 1.024-3.1232 3.0208 7.4752 14.7968 12.032 42.6496 12.8512 60.7744 0.0512 1.6384-1.536 2.816-3.072 2.2016-4.8128-1.9456-14.0288-4.7104-24.32-7.6288-2.304-0.6656-3.84 2.2016-2.0992 3.84 18.944 18.176 19.1488 47.9232 16.8448 61.6448-5.376 54.272 18.3296 77.312 18.3296 77.312 1.5872 1.792-5.12 0-5.12 0s-39.8848-10.2912-70.2464 0c-26.368 8.9088-64.512 4.7104-92.1088-1.5872-2.4064-0.5632-3.7376 2.6112-1.7408 4.0448 12.9536 9.2672 20.3776 15.5648 27.0848 18.5856 1.9456 0.8704 1.7408 3.6864-0.3584 4.1984-37.5808 9.1136-81.7664 21.2992-118.016 11.264-2.2016-0.6144-3.7376 2.048-2.2016 3.6864 14.0288 15.0528 25.2928 25.5488 34.9184 29.6448 1.9456 0.8192 1.6896 3.6352-0.3072 4.1984-19.8656 5.4272-45.2608 10.1888-64.8192 11.1616-2.2016 0.1024-3.0208 2.9696-1.1264 4.1472 9.216 5.632 20.3264 14.4384 30.464 17.5104 1.9456 0.6144 2.048 3.328 0.2048 4.1472-19.8144 8.5504-41.4208 20.992-68.608 29.5424-2.304 0.7168-1.9968 4.096 0.4608 4.352 13.312 1.3312 24.576 2.1504 33.4848 1.6384 2.3552-0.1536 3.2768 2.9696 1.28 4.1472-23.5008 13.7216-41.1648 27.5968-60.8256 35.1744-2.2016 0.8704-1.6384 4.1472 0.7168 4.3008 32.0512 2.2016 52.5312 1.6896 65.8944-0.6144 2.1504-0.3584 3.4304 2.2016 1.8944 3.7888-17.6128 17.6128-15.616 45.1584-19.712 64-0.3584 1.5872 1.024 3.0208 2.6112 2.7136 28.2112-5.4784 37.888-7.8848 49.4592-13.312 2.048-0.9728 4.096 1.3824 2.7648 3.2768-15.9232 22.272-39.2192 50.5856-66.7136 59.136-2.2528 0.7168-1.9968 3.9424 0.3072 4.352 34.304 5.7344 63.488 1.5872 105.2672-11.776 1.5872-0.512 3.1744 0.8192 2.9696 2.4576-4.4032 30.3616-13.3632 56.3712-24.7296 68.7104-1.4848 1.5872-0.1536 4.1472 1.9968 3.7376 66.4064-11.8784 97.536-26.2144 120.7808-41.4208 1.4848-0.9728 3.4816 0.0512 3.4816 1.8432 0.1536 21.4528-4.7104 42.9056-10.5472 53.9648-0.8704 1.6384 0.4096 3.5328 2.2528 3.2768 19.2-2.5088 64.1024-15.872 93.8496-38.7584 1.6896-1.28 4.0448 0.1536 3.584 2.2528-4.1472 19.2-7.936 30.0544-10.1888 35.5328-0.768 1.792 0.9728 3.6352 2.816 2.9184 12.3904-4.5056 45.056-18.3296 69.4784-45.3632 0.0512 0.1536 5.6832-5.8368 12.288 0.9728z" fill="#FAFAFA" p-id="2679"></path><path d="M430.5408 612.096s53.6064-11.776 95.4368 5.2224c20.9408-7.168 76.4928-15.7696 99.328-9.216-21.6064-14.9504-136.6016-43.7248-194.7648 3.9936z" fill="#C6C7CC" p-id="2680"></path><path d="M585.8304 598.272c-5.0688-18.3296-32.9728-21.9648-53.5552-23.1424-44.5952-2.5088-58.3168 10.1888-62.0032 21.3504-3.6352 10.9568 2.1504 23.04 15.0016 31.4368 9.8304 6.4512 23.7568 16.6912 31.0784 22.8864 3.2256 2.7136 7.168 4.0448 11.1104 4.0448 4.352 0 8.7552-1.6384 12.1344-4.9152 6.5536-6.2976 15.9744-12.544 25.088-18.6368 2.3552-1.536 4.6592-3.1232 6.9632-4.6592 11.4688-7.68 16.896-18.5856 14.1824-28.3648z" fill="#1A1819" p-id="2681"></path><path d="M140.4928 384.3072s19.6096-32.3584 36.3008-30.4128c-6.8608-9.7792-21.5552-17.664-31.3856-18.6368 10.8032-10.8032 60.7744-27.4432 71.5776-20.5824 0-6.8608-15.6672-15.6672-21.5552-17.664 34.304-10.8032 64.7168-19.6096 79.4112-14.6944 1.9456-11.776-14.6944-97.0752-171.5712-193.1264-11.776-5.888-27.4432-17.664-18.6368 17.664s18.1248 117.1456 31.3856 139.2128 9.6768 65.1776 6.2976 75.9808c-3.3792 10.8032 2.5088 74.496 18.176 62.2592zM884.4288 384.3072s-19.6096-32.3584-36.3008-30.4128c6.8608-9.7792 21.5552-17.664 31.3856-18.6368-10.8032-10.8032-60.7744-27.4432-71.5776-20.5824 0-6.8608 15.6672-15.6672 21.5552-17.664-34.304-10.8032-64.7168-19.6096-79.4112-14.6944-1.9456-11.776 14.6944-97.0752 171.5712-193.1264 11.776-5.888 27.4432-17.664 18.6368 17.664s-18.1248 117.1456-31.3856 139.2128c-13.2608 22.0672-9.6768 65.1776-6.2976 75.9808 3.4304 10.8032-2.4576 74.496-18.176 62.2592z" fill="#BBBBC4" p-id="2682"></path><path d="M610.0992 519.936s-0.6656-67.9936 71.8848-71.8848c26.7776 0.6656 45.1072 5.2224 74.496 35.9424-3.9424 27.4432-24.1664 88.8832-115.0464 60.1088-16.9472-6.5024-31.6928-18.3808-31.3344-24.1664z" fill="#7E9163" p-id="2683"></path><path d="M623.9232 475.4944c-14.9504 20.5824-14.6944 44.5952-14.6944 44.5952-0.3584 5.888 14.6432 17.9712 31.9488 24.6272 25.0368 7.936 44.7488 9.1136 60.3648 6.0928 9.728-23.0912 3.6864-41.728-0.4096-54.016-17.0496-33.024-54.3232-28.16-77.2096-21.2992z" fill="#1A1819" p-id="2684"></path><path d="M636.4672 516.2496c8.6016 5.5296 24.576 13.9264 43.6736 14.8992 2.7648 0.1536 3.2768 3.8912 0.7168 4.9664-11.6224 4.7104-22.8864 2.3552-30.8224-0.9728-6.2976-2.6624-13.312-9.0112-17.2032-15.4112-1.3312-2.304 1.3824-4.9152 3.6352-3.4816z" fill="#FAFAFA" p-id="2685"></path><path d="M445.5936 519.936s0.6656-67.9936-71.8848-71.8848c-26.7776 0.6656-45.1072 5.2224-74.496 35.9424 3.9424 27.4432 24.1664 88.8832 115.0464 60.1088 16.9472-6.5024 31.6928-18.3808 31.3344-24.1664z" fill="#7E9163" p-id="2686"></path><path d="M431.7696 475.4944c14.9504 20.5824 14.6944 44.5952 14.6944 44.5952 0.3584 5.888-14.6432 17.9712-31.9488 24.6272-25.0368 7.936-44.7488 9.1136-60.3648 6.0928-9.728-23.0912-3.6864-41.728 0.4096-54.016 17.0496-33.024 54.3232-28.16 77.2096-21.2992z" fill="#1A1819" p-id="2687"></path><path d="M419.2256 516.2496c-8.6016 5.5296-24.576 13.9264-43.6736 14.8992-2.7648 0.1536-3.2768 3.8912-0.7168 4.9664 11.6224 4.7104 22.8864 2.3552 30.8224-0.9728 6.2976-2.6624 13.312-9.0112 17.2032-15.4112 1.3312-2.304-1.3824-4.9152-3.6352-3.4816z" fill="#FAFAFA" p-id="2688"></path><path d="M529.0496 884.6848c6.8608-6.8608 12.1344-20.5312 13.7216-25.0368a1.7408 1.7408 0 0 1 2.048-1.0752c3.4816 0.9216 12.032 3.4816 15.872 7.3728 0.768 0.768 1.9968 0.6144 2.6112-0.256 3.2256-4.9152 6.2464-13.6192 6.6048-18.944 0.0512-0.6144 0.3072-1.1776 0.8704-1.4336 4.8128-2.2016 15.2576-0.6656 20.2752 0.1536 1.0752 0.1536 1.9968-0.6656 1.9968-1.7408 0.0512-2.7136-0.9216-5.376-1.792-7.2192a1.6896 1.6896 0 0 1 1.536-2.4576c4.5056 0.0512 13.0048 0.256 17.408 0.9728 0.9728 0.1536 1.8432-0.5632 1.9456-1.536 0.5632-4.3008-0.768-10.2912-1.6384-13.6704-0.3072-1.1776 0.6656-2.3552 1.8944-2.1504 4.3008 0.6144 12.9536 2.1504 18.2784 5.4272 1.2288 0.768 2.7648-0.1536 2.6624-1.5872-0.4096-4.6592-1.9968-11.008-3.8912-15.616-0.512-1.28 0.5632-2.56 1.8944-2.304 5.5808 1.024 16.6912 2.9696 22.9888 5.9904 1.2288 0.6144 2.6624-0.3584 2.4576-1.6896-0.3584-2.7648-1.2288-6.2976-1.8432-8.6528a1.6896 1.6896 0 0 1 1.9456-2.0992c5.5808 0.9216 18.944 3.5328 30.2592 8.8576 1.1776 0.5632 2.5088-0.3072 2.4576-1.5872-0.3072-8.8576-4.3008-22.4768-7.68-30.5664-0.4096-1.024 0.1536-2.048 1.2288-2.304 8.2944-1.9456 16.896-8.3456 24.0128-15.872 0.4096-0.4608 0.5632-1.1264 0.4096-1.7408-1.024-3.584-2.1504-5.9392-3.1232-7.424-0.7168-1.1776 0.0512-2.6624 1.4336-2.6624h6.8096c1.1776 0 1.9968-1.1776 1.6384-2.2528-3.2768-10.3936-7.4752-15.9744-10.5984-18.944-1.1776-1.0752-0.4608-3.0208 1.1264-3.0208h7.7824c1.1776 0 1.9968-1.1776 1.6384-2.304-12.6976-38.912-44.1856-47.1552-55.7568-48.896-1.5872-0.256-2.6112 1.5872-1.5872 2.816 5.888 7.0144 19.3024 23.2448 21.4528 27.8528 0.256 0.512 0.2048 1.1264-0.1024 1.5872-2.4064 3.84-9.1648 8.192-12.288 10.0864-0.8704 0.5632-1.1264 1.6896-0.4608 2.5088 3.1744 3.9936 11.6736 14.9504 14.2336 20.736 0.4096 0.9728-0.0512 2.0992-1.024 2.3552-3.4816 0.8704-9.9328-0.8704-13.7216-2.048a1.70496 1.70496 0 0 0-2.2016 1.9968c1.1776 5.1712 1.8944 10.8544 2.7136 14.08 0.3072 1.2288-0.768 2.3552-1.9968 2.0992-3.072-0.6144-6.144-1.792-8.192-2.6624-1.1776-0.512-2.4064 0.3584-2.4064 1.6384 0.1536 4.2496 0.512 12.288 1.3824 16.5376 0.2048 1.0752-0.6144 2.048-1.6896 2.048-4.864 0-11.4688-1.7408-14.8992-2.7136-1.1264-0.3072-2.2016 0.512-2.2016 1.6896 0.0512 2.7136 0.3072 7.2192 1.4336 10.4448 0.3584 1.024-0.256 2.0992-1.3312 2.2528-9.2672 1.3312-21.9648 2.6112-29.0304-0.3072-1.1264-0.4608-2.304 0.3072-2.304 1.4848-0.1536 10.0352-5.376 27.5456-15.4624 30.5152-11.1104 3.2768-20.2752 4.5568-27.4432 12.0832-7.0656 7.3728-23.808 1.2288-24.4736 0.9728-0.0512 0-0.0512 0-0.0512-0.0512l-8.448-3.7888a1.71008 1.71008 0 0 0-1.3312-0.0512l-9.984 3.84s-17.3056 6.5536-24.5248-0.9728c-7.168-7.5264-16.3328-8.8064-27.4432-12.0832-10.0864-2.9696-15.3088-20.4288-15.4624-30.5152 0-1.2288-1.2288-1.9456-2.304-1.4848-7.0144 2.9184-19.7632 1.6384-29.0304 0.3072a1.67424 1.67424 0 0 1-1.3312-2.2528c1.0752-3.1744 1.3824-7.68 1.4336-10.4448 0-1.1776-1.0752-1.9968-2.2016-1.6896-3.3792 0.9728-9.984 2.7136-14.8992 2.7136-1.1264 0-1.9456-0.9728-1.6896-2.048 0.8704-4.3008 1.2288-12.288 1.3824-16.5376a1.71008 1.71008 0 0 0-2.4064-1.6384c-2.048 0.8704-5.0688 2.048-8.192 2.6624a1.71008 1.71008 0 0 1-1.9968-2.0992c0.8192-3.2256 1.4848-8.8576 2.7136-14.08a1.70496 1.70496 0 0 0-2.2016-1.9968c-3.7888 1.1776-10.24 2.9184-13.7216 2.048-1.024-0.256-1.4336-1.4336-1.024-2.3552 2.5088-5.7856 11.008-16.7424 14.2336-20.736 0.6656-0.8192 0.4096-1.9968-0.4608-2.5088-3.1744-1.8944-9.8816-6.2464-12.288-10.0864a1.60768 1.60768 0 0 1-0.1024-1.5872c2.1504-4.608 15.5648-20.8384 21.4528-27.8528 1.024-1.2288 0-3.072-1.5872-2.816-11.52 1.7408-43.008 9.984-55.7568 48.896-0.3584 1.1264 0.512 2.304 1.6384 2.304h7.7824c1.5872 0 2.304 1.9456 1.1264 3.0208-3.1232 2.9184-7.3728 8.4992-10.5984 18.944-0.3584 1.1264 0.512 2.2528 1.6384 2.2528h6.8096c1.3824 0 2.1504 1.536 1.4336 2.6624-0.9728 1.536-2.048 3.84-3.1232 7.424-0.1536 0.6144 0 1.28 0.4096 1.7408 7.1168 7.5264 15.7696 13.9264 24.0128 15.872 1.0752 0.256 1.6384 1.3312 1.2288 2.304-3.3792 8.0896-7.3728 21.7088-7.68 30.5664-0.0512 1.28 1.28 2.1504 2.4576 1.5872 11.3152-5.3248 24.6784-7.936 30.2592-8.8576 1.2288-0.2048 2.2528 0.9216 1.9456 2.0992-0.6144 2.3552-1.4848 5.888-1.8432 8.6528-0.1536 1.3824 1.2288 2.304 2.4576 1.6896 6.2464-3.0208 17.408-5.0176 22.9888-5.9904 1.3312-0.256 2.4064 1.0752 1.8944 2.304-1.8432 4.608-3.4816 10.9056-3.8912 15.616-0.1024 1.4336 1.4336 2.304 2.6624 1.5872 5.3248-3.2768 13.9776-4.8128 18.2784-5.4272 1.2288-0.1536 2.2016 0.9728 1.8944 2.1504-0.8704 3.328-2.2528 9.3696-1.6384 13.6704 0.1536 0.9728 0.9728 1.6896 1.9456 1.536 4.4544-0.7168 12.9024-0.9216 17.408-0.9728 1.28 0 2.0992 1.28 1.536 2.4576-0.8704 1.8432-1.8432 4.5056-1.792 7.2192 0 1.0752 0.9216 1.9456 1.9968 1.7408 5.0176-0.8192 15.4624-2.4064 20.2752-0.1536 0.5632 0.256 0.8192 0.8192 0.8704 1.4336 0.3584 5.3248 3.328 14.0288 6.6048 18.944 0.6144 0.9216 1.8432 1.024 2.6112 0.256 3.7888-3.84 12.1344-6.3488 15.7184-7.3216 0.9216-0.256 1.8432 0.3072 2.0992 1.2288 1.28 4.9152 5.6832 19.5584 13.824 24.832-0.0512 0.0512 2.2016 1.9456 4.096 0.0512z" fill="#D5D7DB" p-id="2689"></path><path d="M506.88 600.6784a22.3744 9.472 0 1 0 44.7488 0 22.3744 9.472 0 1 0-44.7488 0Z" fill="#383838" p-id="2690"></path><path d="M604.416 982.2208c-1.536 0-3.1232-0.3072-4.608-0.8704-12.9536-5.12-45.6704-19.8656-72.0384-46.6432-25.4464 27.1872-58.4704 41.2672-71.68 46.08-4.6592 1.7408-9.8816 0.512-13.312-3.072-3.4304-3.584-4.4032-8.8576-2.4576-13.4144 1.0752-2.56 2.7648-7.0144 4.7616-14.0288-30.5664 17.7152-66.2528 27.136-81.2032 29.1328-4.6592 0.5632-9.216-1.3824-11.8784-5.2224-2.6624-3.84-2.9696-8.8576-0.768-13.0048 3.6352-6.8096 7.2192-19.8144 8.704-34.5088-21.3504 11.9296-53.0944 24.5248-111.5136 34.9696a12.5952 12.5952 0 0 1-13.1584-6.2464c-2.56-4.7104-1.8944-10.5472 1.792-14.4896 8.0384-8.7552 15.4112-27.5968 19.968-50.6368-38.8608 11.3152-66.304 13.568-97.6384 8.2944a12.38016 12.38016 0 0 1-10.3936-11.4688c-0.4096-5.7856 3.1744-11.0592 8.704-12.7488 17.3568-5.4272 33.6384-20.8896 45.4144-34.6624-6.7584 1.5872-15.0016 3.2768-25.9584 5.376-4.1984 0.8192-8.3968-0.512-11.3152-3.5328a12.544 12.544 0 0 1-3.2768-11.4176c0.9728-4.352 1.5872-9.472 2.2528-14.8992 1.4336-11.9808 3.1744-26.0096 9.3696-38.7072-13.3632 0.6656-30.0032 0.3072-50.3808-1.0752a12.43648 12.43648 0 0 1-11.52-10.6496c-0.8704-5.7856 2.3552-11.3152 7.7824-13.4656 11.9808-4.608 23.3472-11.9296 36.5568-20.3776 0.0512-0.0512 0.1024-0.0512 0.1536-0.1024-2.6624-0.2048-5.3248-0.4608-7.936-0.768a12.34944 12.34944 0 0 1-11.1616-11.1616c-0.0512-0.7168-0.1024-1.4336-0.0512-2.0992-6.4512 1.024-13.5168 1.792-21.248 2.1504a11.8272 11.8272 0 0 1-11.6736-8.3456c-1.536-5.12 0.6144-10.5984 5.2224-13.312 13.9776-8.2944 23.2448-18.8928 32.256-33.2288-9.8304 4.352-20.0192 8.1408-28.4672 10.6496-5.0688 1.536-10.3936-0.4608-13.2096-4.9152-2.7648-4.4032-2.304-10.1376 1.1776-14.0288 7.2704-8.0896 18.8416-24.8832 28.3648-39.2192-9.4208 2.9696-18.9952 5.376-26.2144 5.7856-4.9152 0.3072-9.3184-2.4064-11.3152-6.8608-1.9968-4.4544-1.024-9.5744 2.4576-13.0048 3.8912-3.8912 8.5504-9.1648 13.2608-14.8992-4.4032 1.28-9.1136 2.3552-14.1312 3.1232-5.2224 0.8704-10.3936-1.9456-12.544-6.7584-2.1504-4.8128-0.768-10.496 3.3792-13.824 7.3728-5.9392 10.8544-14.7968 15.3088-26.0096 1.1264-2.8672 2.3552-5.888 3.6352-9.0112-10.4448 0.1536-23.3984-1.4336-39.2704-4.608a11.65312 11.65312 0 0 1-3.072-21.76C93.3376 492.032 102.4 445.9008 106.496 406.6816c-15.616-33.4336-22.2208-69.9904-17.2032-95.8976 4.352-22.6304-3.7376-46.1312-10.1888-61.7984-7.3728-17.9712-22.2208-98.1504-26.2144-149.1968-1.8944-24.2176 1.8432-38.656 11.8784-45.3632 12.1856-8.192 26.8288-1.024 36.608 3.8912 165.7856 68.8128 293.632 184.6272 320.1024 209.6128 22.9376-6.2976 107.776-26.2144 181.504-0.3584 27.0848-25.5488 154.624-140.7488 319.744-209.2544 9.8304-4.9152 24.4736-12.0832 36.608-3.8912 9.984 6.7584 13.7728 21.1456 11.8784 45.3632-4.0448 51.0464-18.8416 131.2256-26.2144 149.1968-6.4512 15.7184-14.5408 39.168-10.1888 61.7984 4.9664 25.9072-1.5872 62.464-17.2032 95.8976 4.096 39.168 13.1584 85.2992 44.9536 102.0416a11.66336 11.66336 0 0 1-3.0208 21.76c-15.872 3.1744-28.7744 4.7616-39.2704 4.608 1.3312 3.1232 2.5088 6.144 3.6352 9.0112 4.4032 11.2128 7.936 20.0704 15.3088 26.0096 4.096 3.328 5.5296 8.96 3.3792 13.824-2.1504 4.8128-7.3216 7.6288-12.4928 6.7584-5.0176-0.8192-9.728-1.8944-14.1312-3.1232 4.7104 5.7344 9.3696 11.0592 13.2608 14.9504 3.4304 3.4304 4.4032 8.5504 2.4064 13.0048-1.9968 4.4544-6.5024 7.168-11.3152 6.8608-7.2192-0.4096-16.8448-2.8672-26.2144-5.7856 9.5232 14.3872 21.0944 31.1296 28.3648 39.2192 3.4816 3.8912 3.9424 9.6256 1.1776 14.0288-2.816 4.4544-8.0896 6.4-13.1584 4.9152a256.9728 256.9728 0 0 1-28.416-10.6496c8.6016 13.6704 17.8688 24.6784 32.1536 33.1776 4.5568 2.7136 6.7072 8.192 5.1712 13.312-0.3584 1.1776-0.8704 2.304-1.536 3.2768 0.7168 1.8432 1.024 3.84 0.8192 5.9392a12.3904 12.3904 0 0 1-11.1616 11.1616l-7.936 0.768c0.0512 0.0512 0.1024 0.0512 0.1536 0.1024 13.2096 8.448 24.576 15.7696 36.5568 20.3776 5.4784 2.0992 8.704 7.6288 7.8336 13.4656-0.8704 5.8368-5.632 10.24-11.52 10.5984-20.3264 1.3824-37.0176 1.7408-50.3296 1.0752 6.1952 12.6976 7.8848 26.7264 9.3696 38.7072 0.6656 5.4272 1.28 10.5472 2.2528 14.8992 0.9216 4.1472-0.3072 8.3968-3.2768 11.4176-2.9184 3.0208-7.168 4.352-11.3152 3.5328-10.9568-2.1504-19.2-3.7888-25.9584-5.4272 11.8272 13.7728 28.0576 29.2352 45.4144 34.6624a12.47232 12.47232 0 0 1-1.6384 24.2176c-31.3344 5.2224-58.7776 3.0208-97.6384-8.3456 4.5568 23.04 11.8784 41.8816 19.968 50.6368 3.6352 3.9936 4.352 9.8304 1.792 14.4896a12.3392 12.3392 0 0 1-13.1072 6.2464c-58.4704-10.4448-90.2144-23.0912-111.5648-35.0208 1.4848 14.6944 5.0688 27.6992 8.704 34.5088 2.2016 4.1472 1.8944 9.1136-0.768 13.0048-2.6624 3.84-7.2192 5.8368-11.8784 5.2224-15.0016-1.9968-50.688-11.3664-81.2032-29.1328 1.9968 6.912 3.6352 11.3664 4.7104 13.8752 1.9456 4.6592 0.8704 9.9328-2.6112 13.5168-2.6624 2.56-5.8368 3.84-9.1136 3.84z m-145.2544-10.0864s0 0.0512 0 0c0 0.0512 0 0 0 0z m-89.9072-1.4336z m-8.1408-11.6736z m237.4144-38.4512c2.7136 0 5.4272 0.8704 7.6288 2.6112 22.9888 17.664 54.8864 28.8768 75.1104 33.9456-3.8912-13.0048-6.1952-29.184-6.0416-44.3904 0.0512-4.5568 2.56-8.704 6.5536-10.8544 4.0448-2.1504 8.9088-1.9456 12.7488 0.5632 17.8176 11.6736 43.4688 24.9344 98.56 36.352-7.2704-14.6432-12.9536-34.5088-16.2304-57.3952-0.6144-4.3008 0.9728-8.4992 4.3008-11.3152 3.328-2.816 7.7824-3.6864 11.9296-2.3552 29.952 9.5744 52.1728 14.08 73.8816 13.824-19.2512-13.824-35.072-33.9456-46.4384-49.8176-3.2768-4.608-3.072-10.8544 0.5632-15.2064a12.4416 12.4416 0 0 1 14.8992-3.2768c8.6016 4.0448 15.9744 6.2976 35.7888 10.2912l-0.6144-5.0688c-1.8944-15.5136-3.84-31.5392-14.4384-42.1376a12.4416 12.4416 0 0 1-2.2528-14.592c2.5088-4.8128 7.7312-7.4752 13.1584-6.5024 8.3968 1.4336 19.5584 2.0992 33.792 1.8432-4.2496-2.6112-8.4992-5.3248-12.8512-8.0896-6.9632-4.4544-14.1824-9.0624-22.0672-13.6704a12.43136 12.43136 0 0 1-5.6832-14.3872c1.4848-4.9664 5.8368-8.3968 10.9056-8.8064l6.144-17.92c0.3584 0.1024 0.768 0.2048 1.1264 0.256-7.0656-7.936-12.6464-16.4352-17.6128-24.7808l-2.4576-4.2496v-0.0512c-2.9184-5.12-6.0416-10.8032-10.0352-18.3296-2.56-4.8128-1.4848-10.7008 2.6624-14.2336 4.1472-3.584 10.0864-3.84 14.4896-0.6144 5.376 3.9424 13.4144 8.192 22.016 12.0832-10.0352-14.3872-20.1728-30.208-25.6512-38.7584a11.6224 11.6224 0 0 1 0.8704-13.6704 11.5712 11.5712 0 0 1 13.2608-3.3792c6.912 2.7648 13.4656 5.1712 19.4048 7.1168-7.0144-8.704-13.7216-17.5616-18.3296-23.7568-3.3792-4.5056-3.0208-10.8032 0.8704-14.8992 3.8912-4.096 10.1376-4.864 14.848-1.792 4.1472 2.7136 9.6768 5.7856 16.4352 8.6016-1.8944-3.9936-3.4816-8.1408-5.12-12.1856-2.816-7.168-5.7856-14.592-10.0352-21.6576-2.56-4.2496-2.1504-9.6768 1.024-13.4656s8.448-5.1712 13.1072-3.4304c2.6112 0.9728 9.6256 2.56 26.1632 0.6144-26.4704-26.0608-34.3552-70.0416-38.0928-107.4176-0.2048-2.1504 0.1536-4.3008 1.0752-6.1952 14.336-29.7984 20.8896-63.3344 16.64-85.4016-5.376-28.0064 3.8912-55.3472 11.3664-73.472 5.9904-14.4896 20.736-92.16 24.7296-143.0016 1.8432-23.3472-2.816-26.7776-2.8672-26.7776-1.0752-0.7168-4.7616-0.4096-16.2816 5.376l-0.8704 0.3584c-175.4624 72.704-311.9104 203.4688-317.6448 208.9984-3.2768 3.1232-8.0384 4.096-12.2368 2.4576-75.9296-29.184-168.2944-2.7648-178.5344 0.3072-4.096 1.2288-8.448 0.1536-11.4688-2.7648-5.6832-5.5296-142.1824-136.3456-317.7472-209.0496l-0.7168-0.3072c-11.52-5.7344-15.2064-6.0928-16.2816-5.376-0.0512 0.0512-4.7104 3.4816-2.8672 26.7776 3.9936 50.8416 18.7904 128.4608 24.7296 143.0016 7.4752 18.1248 16.7424 45.4656 11.3664 73.472-4.2496 22.0672 2.304 55.6032 16.64 85.4528 0.9216 1.8944 1.28 4.0448 1.0752 6.1952-3.7376 37.4272-11.6736 81.3568-38.144 107.4176 16.5888 1.8944 23.6032 0.3584 26.1632-0.6144 4.6592-1.792 9.9328-0.4096 13.1072 3.4304 3.1744 3.7888 3.584 9.216 0.9728 13.4656-4.2496 7.0656-7.2192 14.4896-10.0352 21.6576-1.5872 4.0448-3.2256 8.192-5.12 12.1856 6.7584-2.816 12.288-5.9392 16.4352-8.6016 4.7104-3.072 10.9568-2.3552 14.848 1.792 3.84 4.096 4.1984 10.3936 0.8704 14.8992-4.608 6.1952-11.3152 15.104-18.3296 23.7568 5.9392-1.9968 12.4928-4.4032 19.4048-7.1168 4.7104-1.8432 10.0352-0.512 13.2608 3.3792 3.2256 3.8912 3.584 9.3696 0.8704 13.6704-5.4272 8.5504-15.616 24.3712-25.6512 38.7584 8.6016-3.8912 16.64-8.192 22.0672-12.1344 4.4032-3.2256 10.3936-2.9696 14.4896 0.6144 4.096 3.584 5.1712 9.4208 2.6624 14.2336-10.1888 19.2-18.8928 34.7648-30.1568 47.4112 14.8992-3.4816 24.0128-8.1408 27.2384-10.0352 2.9184-1.6896 6.4512-2.048 9.6768-0.9216 3.2256 1.1264 5.7856 3.6352 6.9632 6.8608 0.5632 1.4848 1.5872 3.9424 3.2768 7.2192l4.8128 9.5232-9.6768 4.4544c-0.1024 0.0512-0.2048 0.1024-0.256 0.1024 3.9424 1.1776 7.1168 4.1984 8.3968 8.3456 1.6896 5.5296-0.6144 11.4688-5.632 14.3872-7.8848 4.608-15.104 9.216-22.0672 13.6704-4.352 2.7648-8.6016 5.4784-12.8 8.0896 14.2336 0.2048 25.3952-0.4096 33.792-1.8432a12.4416 12.4416 0 0 1 13.1584 6.5024c2.5088 4.864 1.5872 10.7008-2.304 14.592-10.5984 10.5984-12.544 26.624-14.3872 42.1376-0.2048 1.7408-0.4096 3.4304-0.6144 5.0688 19.8144-4.0448 27.136-6.2464 35.7888-10.2912 5.12-2.4064 11.264-1.0752 14.8992 3.2768s3.84 10.5984 0.5632 15.2064c-11.3664 15.872-27.136 35.9936-46.4384 49.8176 21.3504-0.0512 43.9296-4.2496 73.8816-13.824 4.1472-1.28 8.6016-0.4096 11.9296 2.3552 3.328 2.816 4.9152 7.0144 4.3008 11.264-3.328 22.8864-9.0112 42.752-16.2304 57.3952 55.0912-11.4176 80.7936-24.6784 98.56-36.352a12.51328 12.51328 0 0 1 19.3536 10.2912c0.1024 15.2064-2.2016 31.3856-6.0416 44.3904 20.2752-5.0688 52.1728-16.2816 75.1104-33.9456 4.1472-3.1744 9.9328-3.4304 14.336-0.6656 4.4544 2.816 6.656 8.0384 5.5296 13.2096-1.6896 7.8848-3.328 14.4384-4.864 19.8656 14.4896-6.9632 33.7408-18.5344 49.3568-35.7888 1.024-1.1264 5.7856-5.7344 13.1584-5.7856 3.3792-0.1024 8.9088 1.0752 14.08 6.4 16.0768 16.5888 35.1232 28.16 49.408 35.3792-1.4848-5.3248-3.072-11.6736-4.7104-19.2-1.1264-5.1712 1.024-10.3424 5.5296-13.1584 2.1504-1.2288 4.4544-1.8944 6.8096-1.8944z m7.7824 10.8032z m-156.416-0.8192z m-287.232-52.2752z m-42.3424-163.4304z m733.696-66.048s0.0512 0.0512 0 0c0.0512 0.0512 0 0 0 0z m60.6208-31.8464s0.0512 0 0 0c0.0512 0 0 0 0 0z m-805.2224-0.0512c-0.0512 0.0512-0.0512 0.0512 0 0-0.0512 0.0512-0.0512 0.0512 0 0z m816.8448-30.8736c0 0.0512 0 0.0512 0 0 0 0.0512 0 0.0512 0 0z m-828.5184 0s0 0.0512 0 0c0 0.0512 0 0 0 0z m784.5376-13.6704s0 0.0512 0 0c0 0.0512 0 0 0 0z m-740.5056 0s-0.0512 0 0 0c-0.0512 0 0 0 0 0z m-34.2016-163.3792z m808.8576 0zM425.1136 271.4112c0 0.0512 0 0.0512 0 0 0 0.0512 0 0.0512 0 0z" fill="#1A1819" p-id="2691"></path><path d="M595.0976 765.4912c-2.2528 0-4.5056-0.7168-6.4-2.2528-27.648-22.016-48.9472-60.7232-60.7232-90.624-21.7088 53.8112-62.1568 88.6784-64.2048 90.4192-4.3008 3.6352-10.752 3.1232-14.4384-1.1776-3.6352-4.3008-3.1232-10.752 1.1776-14.4384 0.5632-0.4608 54.4256-47.0528 67.5328-112.5376 0.9728-4.9664 5.5808-8.3456 10.496-8.192 5.0176 0.2048 9.1648 4.096 9.728 9.1136 1.9456 17.2544 26.624 82.3296 63.1808 111.4112 4.4032 3.5328 5.1712 9.984 1.6384 14.3872-1.9968 2.56-5.0176 3.8912-7.9872 3.8912z" fill="#1A1819" p-id="2692"></path></svg>